<svg width="29" height="29" xmlns="http://www.w3.org/2000/svg" xmlns:xlink="http://www.w3.org/1999/xlink" xml:space="preserve" overflow="hidden"><g transform="translate(-355 -449)"><path d="M380.073 457.166C379.84 454.145 377.704 451.846 375.3 452.03 372.896 452.214 371.14 454.815 371.373 457.836 371.606 460.857 373.742 463.155 376.146 462.971 378.549 462.787 380.307 460.186 380.073 457.166ZM377.216 461.355C376.87 461.589 376.469 461.731 376.052 461.765 376.012 461.768 375.973 461.769 375.933 461.77 376.255 460.323 375.679 458.988 375.073 457.588 374.538 456.353 373.993 455.089 374.092 453.753 374.466 453.458 374.919 453.278 375.395 453.236L375.409 453.236C375.05 454.496 375.582 455.726 376.182 457.109 376.739 458.393 377.345 459.802 377.216 461.355Z" fill="#FFFEFE"/><path d="M376.309 467.158C374.203 464.98 371.091 464.573 369.359 466.249 367.626 467.925 367.93 471.048 370.036 473.227 372.143 475.406 375.254 475.81 376.987 474.133 378.719 472.457 378.416 469.335 376.309 467.158ZM376.146 473.266C376.116 473.294 376.085 473.316 376.055 473.342 375.38 472.024 374.086 471.364 372.727 470.674 371.526 470.064 370.301 469.437 369.525 468.348 369.625 467.881 369.859 467.454 370.198 467.118 370.202 467.114 370.206 467.112 370.209 467.109 370.736 468.308 371.931 468.915 373.274 469.598 374.521 470.232 375.884 470.927 376.776 472.202 376.662 472.606 376.445 472.972 376.146 473.266Z" fill="#FFFEFE"/><path d="M366.305 457.143C364.277 455.842 361.307 456.854 359.671 459.404 358.035 461.954 358.353 465.076 360.382 466.378 362.41 467.679 365.38 466.666 367.017 464.116 368.653 461.566 368.334 458.444 366.305 457.143ZM363.946 461.723C363.616 463.081 363.251 464.567 362.218 465.727 361.798 465.711 361.39 465.584 361.034 465.361 361.001 465.339 360.971 465.314 360.939 465.291 362.067 464.331 362.412 462.919 362.772 461.438 363.09 460.128 363.418 458.791 364.304 457.783L364.317 457.783C364.789 457.776 365.254 457.906 365.653 458.159 365.657 458.162 365.661 458.165 365.664 458.168 364.618 458.957 364.302 460.259 363.946 461.723Z" fill="#FFFEFE"/></g></svg>